<svg width="605" height="732" viewBox="0 0 605 732" fill="none" xmlns="http://www.w3.org/2000/svg">
<g filter="url(#filter0_d_282_40)">
<g filter="url(#filter1_d_282_40)">
<path d="M176.661 120.107C176.661 105.36 188.563 93.4045 203.243 93.4045H406.235C420.916 93.4045 432.817 105.36 432.817 120.107C432.817 134.854 420.916 146.809 406.235 146.809H203.243C188.563 146.809 176.661 134.854 176.661 120.107Z" fill="#ACAAAA"/>
<path d="M176.661 66.7023C176.661 51.955 188.563 40 203.243 40C217.924 40 229.826 51.955 229.826 66.7023V120.107C229.826 134.854 217.924 146.809 203.243 146.809C188.563 146.809 176.661 134.854 176.661 120.107V66.7023Z" fill="#ACAAAA"/>
<path d="M379.653 66.7023C379.653 51.955 391.554 40 406.235 40C420.916 40 432.817 51.955 432.817 66.7023V120.107C432.817 134.854 420.916 146.809 406.235 146.809C391.554 146.809 379.653 134.854 379.653 120.107V66.7023Z" fill="#ACAAAA"/>
<path d="M278.157 66.7023C278.157 51.955 290.058 40 304.739 40C319.42 40 331.321 51.955 331.321 66.7023V120.107C331.321 134.854 319.42 146.809 304.739 146.809C290.058 146.809 278.157 134.854 278.157 120.107V66.7023Z" fill="#ACAAAA"/>
</g>
<g filter="url(#filter2_d_282_40)">
<path d="M51 205.071C51 186.301 66.1471 171.086 84.8319 171.086H519.813C538.498 171.086 553.645 186.301 553.645 205.071V423.544C553.645 562.972 441.124 676.002 302.323 676.002C163.521 676.002 51 562.972 51 423.544V205.071Z" fill="#EE6A6A"/>
</g>
<g filter="url(#filter3_d_282_40)">
<path fill-rule="evenodd" clip-rule="evenodd" d="M302.661 254C233.261 254 177 310.515 177 380.229C177 407.277 185.469 432.338 199.889 452.882C186.791 454.539 176.661 465.768 176.661 479.374C176.661 494.121 188.563 506.076 203.243 506.076H292.818C296.066 506.329 299.349 506.458 302.661 506.458C305.974 506.458 309.257 506.329 312.505 506.076H401.402C416.083 506.076 427.984 494.121 427.984 479.374C427.984 465.983 418.171 454.894 405.374 452.968C419.83 432.408 428.323 407.314 428.323 380.229C428.323 310.515 372.062 254 302.661 254ZM302.322 307.023C262.283 307.023 229.825 339.627 229.825 379.847C229.825 401.416 239.16 420.795 253.992 434.13V506.076H350.655V434.126C365.485 420.792 374.819 401.414 374.819 379.847C374.819 339.627 342.361 307.023 302.322 307.023Z" fill="#F5DD76"/>
</g>
</g>
<defs>
<filter id="filter0_d_282_40" x="11" y="0" width="582.645" height="716.002" filterUnits="userSpaceOnUse" color-interpolation-filters="sRGB">
<feFlood flood-opacity="0" result="BackgroundImageFix"/>
<feColorMatrix in="SourceAlpha" type="matrix" values="0 0 0 0 0 0 0 0 0 0 0 0 0 0 0 0 0 0 127 0" result="hardAlpha"/>
<feOffset/>
<feGaussianBlur stdDeviation="20"/>
<feComposite in2="hardAlpha" operator="out"/>
<feColorMatrix type="matrix" values="0 0 0 0 0.0833236 0 0 0 0 0.0507639 0 0 0 0 0.283333 0 0 0 0.03 0"/>
<feBlend mode="normal" in2="BackgroundImageFix" result="effect1_dropShadow_282_40"/>
<feBlend mode="normal" in="SourceGraphic" in2="effect1_dropShadow_282_40" result="shape"/>
</filter>
<filter id="filter1_d_282_40" x="172.661" y="40" width="264.156" height="114.809" filterUnits="userSpaceOnUse" color-interpolation-filters="sRGB">
<feFlood flood-opacity="0" result="BackgroundImageFix"/>
<feColorMatrix in="SourceAlpha" type="matrix" values="0 0 0 0 0 0 0 0 0 0 0 0 0 0 0 0 0 0 127 0" result="hardAlpha"/>
<feOffset dy="4"/>
<feGaussianBlur stdDeviation="2"/>
<feComposite in2="hardAlpha" operator="out"/>
<feColorMatrix type="matrix" values="0 0 0 0 0 0 0 0 0 0 0 0 0 0 0 0 0 0 0.11 0"/>
<feBlend mode="normal" in2="BackgroundImageFix" result="effect1_dropShadow_282_40"/>
<feBlend mode="normal" in="SourceGraphic" in2="effect1_dropShadow_282_40" result="shape"/>
</filter>
<filter id="filter2_d_282_40" x="0" y="124.086" width="604.645" height="606.916" filterUnits="userSpaceOnUse" color-interpolation-filters="sRGB">
<feFlood flood-opacity="0" result="BackgroundImageFix"/>
<feColorMatrix in="SourceAlpha" type="matrix" values="0 0 0 0 0 0 0 0 0 0 0 0 0 0 0 0 0 0 127 0" result="hardAlpha"/>
<feOffset dy="4"/>
<feGaussianBlur stdDeviation="25.5"/>
<feComposite in2="hardAlpha" operator="out"/>
<feColorMatrix type="matrix" values="0 0 0 0 0.084575 0 0 0 0 0.06375 0 0 0 0 0.2125 0 0 0 0.08 0"/>
<feBlend mode="normal" in2="BackgroundImageFix" result="effect1_dropShadow_282_40"/>
<feBlend mode="normal" in="SourceGraphic" in2="effect1_dropShadow_282_40" result="shape"/>
</filter>
<filter id="filter3_d_282_40" x="172.661" y="254" width="259.661" height="260.458" filterUnits="userSpaceOnUse" color-interpolation-filters="sRGB">
<feFlood flood-opacity="0" result="BackgroundImageFix"/>
<feColorMatrix in="SourceAlpha" type="matrix" values="0 0 0 0 0 0 0 0 0 0 0 0 0 0 0 0 0 0 127 0" result="hardAlpha"/>
<feOffset dy="4"/>
<feGaussianBlur stdDeviation="2"/>
<feComposite in2="hardAlpha" operator="out"/>
<feColorMatrix type="matrix" values="0 0 0 0 0 0 0 0 0 0 0 0 0 0 0 0 0 0 0.15 0"/>
<feBlend mode="normal" in2="BackgroundImageFix" result="effect1_dropShadow_282_40"/>
<feBlend mode="normal" in="SourceGraphic" in2="effect1_dropShadow_282_40" result="shape"/>
</filter>
</defs>
</svg>
